<svg width="22" height="22" viewBox="0 0 22 22" fill="none" xmlns="http://www.w3.org/2000/svg">
    <g clip-path="url(#clip0_894_1222)">
        <path d="M11 22C17.0751 22 22 17.0751 22 11C22 4.92487 17.0751 0 11 0C4.92487 0 0 4.92487 0 11C0 17.0751 4.92487 22 11 22Z" fill="black"/>
        <g clip-path="url(#clip1_894_1222)">
            <path d="M16.6559 14.4667L14.5558 16.8364C14.5106 16.8884 14.4555 16.9298 14.3943 16.958C14.3331 16.9862 14.267 17.0005 14.2002 17H4.24472C4.19726 16.9997 4.15088 16.985 4.1111 16.9576C4.07132 16.9302 4.03983 16.8912 4.02036 16.8453C4.00126 16.7996 3.99542 16.7488 4.00359 16.6995C4.01193 16.65 4.03346 16.6041 4.06565 16.5671L6.16327 14.1973C6.20849 14.1453 6.2635 14.1038 6.32474 14.0757C6.38599 14.0475 6.45212 14.0332 6.51888 14.0338H16.4744C16.5221 14.0324 16.5691 14.0461 16.6095 14.0731C16.6498 14.1001 16.6817 14.1392 16.701 14.1855C16.7203 14.2317 16.7263 14.283 16.718 14.3329C16.7098 14.3827 16.6877 14.4288 16.6547 14.4653L16.6559 14.4667ZM14.5554 9.69332C14.5094 9.64234 14.4542 9.60161 14.3932 9.57352C14.3321 9.54543 14.2663 9.53056 14.1998 9.52977H4.24472C4.19722 9.53007 4.1508 9.54485 4.11102 9.57236C4.07124 9.59986 4.03976 9.63893 4.02036 9.68488C4.00129 9.73064 3.99545 9.78137 4.00359 9.83066C4.01198 9.88043 4.03336 9.92532 4.06565 9.96266L6.16327 12.3338C6.20814 12.3849 6.26391 12.4262 6.3243 12.4538C6.38594 12.4822 6.45136 12.496 6.51888 12.4973H16.4744C16.5216 12.4974 16.5678 12.4828 16.6072 12.4553C16.6467 12.4278 16.6776 12.3887 16.6962 12.3427C16.7153 12.2969 16.7212 12.2462 16.7132 12.1969C16.7051 12.1476 16.6835 12.102 16.6509 12.0658L14.5541 9.69465L14.5554 9.69332ZM4.2443 7.9911H14.1998C14.2667 7.99072 14.3328 7.97622 14.3944 7.94843C14.456 7.91999 14.5105 7.87999 14.5554 7.82754L16.6564 5.45777C16.6806 5.43031 16.6989 5.39757 16.7099 5.36183C16.7209 5.32608 16.7244 5.28822 16.7201 5.25089C16.7158 5.21357 16.7039 5.17769 16.6851 5.14578C16.6664 5.11387 16.6412 5.08671 16.6115 5.06621C16.5711 5.03881 16.5239 5.02488 16.476 5.02621H6.51888C6.45262 5.02621 6.38594 5.04132 6.3243 5.06843C6.26315 5.09639 6.20827 5.13774 6.16327 5.18977L4.06565 7.55954C4.03356 7.59624 4.01221 7.64202 4.00417 7.69132C3.99613 7.74062 4.00175 7.79134 4.02036 7.83732C4.0398 7.88312 4.07123 7.92204 4.11093 7.94946C4.15062 7.97688 4.19692 7.99164 4.2443 7.99199V7.9911Z" fill="url(#paint0_linear_894_1222)"/>
        </g>
    </g>
    <defs>
        <linearGradient id="paint0_linear_894_1222" x1="5.0742" y1="17.2853" x2="16.113" y2="5.46021" gradientUnits="userSpaceOnUse">
            <stop offset="0.08" stop-color="#9945FF"/>
            <stop offset="0.3" stop-color="#8752F3"/>
            <stop offset="0.5" stop-color="#5497D5"/>
            <stop offset="0.6" stop-color="#43B4CA"/>
            <stop offset="0.72" stop-color="#28E0B9"/>
            <stop offset="0.97" stop-color="#19FB9B"/>
        </linearGradient>
        <clipPath id="clip0_894_1222">
            <rect width="22" height="22" fill="white"/>
        </clipPath>
        <clipPath id="clip1_894_1222">
            <rect width="13" height="12" fill="white" transform="translate(4 5)"/>
        </clipPath>
    </defs>
</svg>
